<svg xmlns="http://www.w3.org/2000/svg" width="512" height="456"><rect id="backgroundrect" width="100%" height="100%" x="0" y="0" fill="none" stroke="none"/><g class="currentLayer" style=""><title>Layer 1</title><path d="m471.382812,44.578125 c-26.503906,-28.746094 -62.871093,-44.578125 -102.410156,-44.578125 c-29.554687,0 -56.621094,9.34375 -80.449218,27.769531 c-12.023438,9.300781 -22.917969,20.679688 -32.523438,33.960938 c-9.601562,-13.277344 -20.5,-24.660157 -32.527344,-33.960938 c-23.824218,-18.425781 -50.890625,-27.769531 -80.445312,-27.769531 c-39.539063,0 -75.910156,15.832031 -102.414063,44.578125 c-26.1875,28.410156 -40.613281,67.222656 -40.613281,109.292969 c0,43.300781 16.136719,82.9375 50.78125,124.742187 c30.992188,37.394531 75.535156,75.355469 127.117188,119.3125 c17.613281,15.011719 37.578124,32.027344 58.308593,50.152344 c5.476563,4.796875 12.503907,7.4375 19.792969,7.4375 c7.285156,0 14.316406,-2.640625 19.785156,-7.429687 c20.730469,-18.128907 40.707032,-35.152344 58.328125,-50.171876 c51.574219,-43.949218 96.117188,-81.90625 127.109375,-119.304687 c34.644532,-41.800781 50.777344,-81.4375 50.777344,-124.742187 c0,-42.066407 -14.425781,-80.878907 -40.617188,-109.289063 zm0,0 " id="svg_1" class="" fill="#ffffff" fill-opacity="1"/></g></svg>