<svg xmlns="http://www.w3.org/2000/svg" height="512" width="512" style=""><rect id="backgroundrect" width="100%" height="100%" x="0" y="0" fill="none" stroke="none"/><g class="currentLayer" style=""><title>Layer 1</title><path d="m496.52864537306976,221.86197868653488 c-0.011718000000000003,-0.011718000000000003 -0.023437000000000006,-0.023437000000000006 -0.03515600000000001,-0.03515600000000001 l-208.855468,-208.847656 c-8.902344,-8.90625 -20.738282,-13.8125 -33.328126,-13.8125 c-12.589843,0 -24.425781,4.902344 -33.332031,13.808594 l-208.746093,208.742187 c-0.070313,0.070313 -0.140626,0.14453100000000002 -0.21093800000000004,0.21484400000000003 c-18.28125,18.386719 -18.25,48.21875 0.08984400000000002,66.558594 c8.378906,8.382812 19.445312,13.238281 31.277344,13.746093 c0.48046800000000006,0.046876000000000015 0.9648430000000001,0.070313 1.453124,0.070313 h8.324219 v153.699219 c0,30.414062 24.746094,55.160156 55.167969,55.160156 h81.710938 c8.28125,0 15,-6.714844 15,-15 v-120.5 c0,-13.878906 11.289062,-25.167969 25.167968,-25.167969 h48.195313 c13.878906,0 25.167969,11.289063 25.167969,25.167969 v120.5 c0,8.285156 6.714843,15 15,15 h81.710937 c30.421875,0 55.167969,-24.746094 55.167969,-55.160156 v-153.699219 h7.71875 c12.585937,0 24.421875,-4.902344 33.332031,-13.808594 c18.359375,-18.371093 18.367187,-48.253906 0.023437000000000006,-66.636719 zm0,0 " id="svg_1" class="" fill="#ffffff" fill-opacity="1"/></g></svg>