<svg xmlns="http://www.w3.org/2000/svg" height="422" width="512"><rect id="backgroundrect" width="100%" height="100%" x="0" y="0" fill="none" stroke="none" class="" style=""/><g class="currentLayer" style=""><title>Layer 1</title><path d="m407,0 h-302 c-57.898438,0 -105,47.101562 -105,105 v162.171875 c0,46.199219 30.332031,86.4375 74.285156,99.316406 l50.710938,50.714844 c2.8164059999999997,2.8125 6.628906,4.394531 10.609375,4.394531 c3.976562,0 7.792969,-1.5820310000000002 10.605469,-4.394531 l46.519531,-46.523437 h214.269531 c57.898438,0 105,-47.101563 105,-105 v-160.679688 c0,-57.898438 -47.101562,-105 -105,-105 zm-261.242188,211.851562 c0,-8.285156 6.714844,-15 15,-15 h190.484376 c8.285156,0 15,6.714844 15,15 c0,8.285157 -6.714844,15 -15,15 h-190.484376 c-8.285156,0 -15,-6.714843 -15,-15 zm205.484376,-38.023437 h-190.484376 c-8.285156,0 -15,-6.714844 -15,-15 c0,-8.28125 6.714844,-15 15,-15 h190.484376 c8.285156,0 15,6.71875 15,15 c0,8.285156 -6.714844,15 -15,15 zm0,0 " id="svg_1" class="" fill="#ffffff" fill-opacity="1"/></g></svg>