<svg xmlns="http://www.w3.org/2000/svg" height="512" width="427"><rect id="backgroundrect" width="100%" height="100%" x="0" y="0" fill="none" stroke="none"/><g class="currentLayer" style=""><title>Layer 1</title><path d="m413.41796995367434,360.8125 c-32.253907,-27.265625 -50.75,-67.117188 -50.75,-109.335938 v-59.476562 c0,-75.070312 -55.765625,-137.214844 -128,-147.625 v-23.042969 c0,-11.796875 -9.558594,-21.332031 -21.335938,-21.332031 c-11.773437,0 -21.332031,9.535156 -21.332031,21.332031 v23.042969 c-72.257812,10.410156 -128,72.554688 -128,147.625 v59.476562 c0,42.21875 -18.496094,82.070313 -50.945312,109.503907 c-8.296876,7.105469 -13.054688,17.429687 -13.054688,28.351562 c0,20.589844 16.746094,37.335938 37.332031,37.335938 h352 c20.589844,0 37.335938,-16.746094 37.335938,-37.335938 c0,-10.921875 -4.7578130000000005,-21.246093 -13.25,-28.519531 zm0,0 " id="svg_1" class="" fill="#ffffff" fill-opacity="1"/><path d="m213.33203195367432,512 c38.636719,0 70.957031,-27.542969 78.378907,-64 h-156.757813 c7.425781,36.457031 39.746094,64 78.378906,64 zm0,0 " id="svg_2" class="selected" fill="#ffffff" fill-opacity="1"/></g></svg>