<svg xmlns="http://www.w3.org/2000/svg" height="512" width="469"><rect id="backgroundrect" width="100%" height="100%" x="0" y="0" fill="none" stroke="none" class="" style=""/><g class="currentLayer" style=""><title>Layer 1</title><path d="m213.3453140258789,512 c38.636719,0 70.957031,-27.542969 78.378906,-64 h-156.757812 c7.425781,36.457031 39.746094,64 78.378906,64 zm0,0 " id="svg_1" class="" fill="#ffffff" fill-opacity="1"/><path d="m362.93515802587893,255.980469 c-0.08593800000000001,0 -0.171875,0.019531000000000003 -0.257813,0.019531000000000003 c-82.324219,0 -149.332031,-66.988281 -149.332031,-149.332031 c0,-22.636719 5.207031,-44.035157 14.273438,-63.277344 c-4.6953130000000005,-0.44531300000000007 -9.453126,-0.7226560000000001 -14.273438,-0.7226560000000001 c-82.472656,0 -149.332031,66.855469 -149.332031,149.332031 v59.476562 c0,42.21875 -18.496094,82.070313 -50.945313,109.503907 c-10.816406,9.238281 -15.617187,23.957031 -11.734375,38.316406 c4.523438,16.703125 21.035157,27.371094 38.359375,27.371094 h347.199219 c18.175781,0 35.308594,-11.777344 38.996094,-29.589844 c2.859375,-13.78125 -2.046875,-27.542969 -12.734375,-36.523437 c-31.019532,-26.003907 -48.960938,-64.214844 -50.21875,-104.574219 zm0,0 " id="svg_2" class="" fill="#ffffff" fill-opacity="1"/><path d="m469.3453140258789,106.667969 c0,58.910156 -47.753906,106.664062 -106.667969,106.664062 c-58.910156,0 -106.664062,-47.753906 -106.664062,-106.664062 c0,-58.910157 47.753906,-106.667969 106.664062,-106.667969 c58.914063,0 106.667969,47.757812 106.667969,106.667969 zm0,0 " id="svg_3" class="" fill="#eb1a1a" fill-opacity="1"/></g></svg>