<svg xmlns="http://www.w3.org/2000/svg" xmlns:xlink="http://www.w3.org/1999/xlink" version="1.1" style="" xml:space="preserve" width="450" height="515"><rect id="backgroundrect" width="100%" height="100%" x="0" y="0" fill="none" stroke="none" class="" style=""/>

















<g class="currentLayer" style=""><title>Layer 1</title><g id="svg_1" class="" fill="#ffffff" fill-opacity="1">
	<g id="svg_2" fill="#ffffff" fill-opacity="1">
		<path d="M224.00000381469727,2 c-74.439,0 -135,60.561 -135,135 s60.561,135 135,135 s135,-60.561 135,-135 S298.4390038146973,2 224.00000381469727,2 z" id="svg_3" fill="#ffffff" fill-opacity="1"/>
	</g>
</g><g id="svg_4" class="selected" fill="#ffffff" fill-opacity="1">
	<g id="svg_5" fill="#ffffff" fill-opacity="1">
		<path d="M392.9660038146973,361.195 C356.00600381469724,323.667 307.0090038146973,303 255.00000381469727,303 h-60 c-52.008,0 -101.006,20.667 -137.966,58.195 C20.255003814697268,398.539 0.000003814697265625,447.833 0.000003814697265625,500 c0,8.284 6.716,15 15,15 h420 c8.284,0 15,-6.716 15,-15 C450.00000381469727,447.833 429.74500381469727,398.539 392.9660038146973,361.195 z" id="svg_6" fill="#ffffff" fill-opacity="1"/>
	</g>
</g><g id="svg_7" class="">
</g><g id="svg_8" class="">
</g><g id="svg_9" class="">
</g><g id="svg_10" class="">
</g><g id="svg_11" class="">
</g><g id="svg_12" class="">
</g><g id="svg_13" class="">
</g><g id="svg_14" class="">
</g><g id="svg_15" class="">
</g><g id="svg_16" class="">
</g><g id="svg_17" class="">
</g><g id="svg_18" class="">
</g><g id="svg_19" class="">
</g><g id="svg_20" class="">
</g><g id="svg_21" class="">
</g></g></svg>